<svg width="96" height="96" viewBox="0 0 96 96" fill="none" xmlns="http://www.w3.org/2000/svg">
  <rect x="6" y="6" width="84" height="84" rx="22" fill="url(#bg)" stroke="url(#stroke)" stroke-width="2"/>
  <path d="M25 57C35 57 43 53 48 45C53 53 61 57 71 57C64 65 55 69 48 69C41 69 32 65 25 57Z" fill="#05070D"/>
  <path d="M18 31C35 35 43 43 46 56C33 53 23 44 18 31Z" fill="#05070D"/>
  <path d="M78 31C61 35 53 43 50 56C63 53 73 44 78 31Z" fill="#05070D"/>
  <path d="M31 44L41 53M65 44L55 53" stroke="url(#accent)" stroke-width="4" stroke-linecap="round"/>
  <defs>
    <linearGradient id="bg" x1="10" y1="10" x2="88" y2="90" gradientUnits="userSpaceOnUse">
      <stop stop-color="#E8F8FF" stop-opacity=".90"/>
      <stop offset=".48" stop-color="#93C5FD" stop-opacity=".55"/>
      <stop offset="1" stop-color="#F472B6" stop-opacity=".60"/>
    </linearGradient>
    <linearGradient id="stroke" x1="10" y1="6" x2="88" y2="92" gradientUnits="userSpaceOnUse">
      <stop stop-color="#FFFFFF" stop-opacity=".8"/>
      <stop offset="1" stop-color="#7DD3FC" stop-opacity=".35"/>
    </linearGradient>
    <linearGradient id="accent" x1="31" y1="44" x2="65" y2="53" gradientUnits="userSpaceOnUse">
      <stop stop-color="#EE4FA8"/>
      <stop offset="1" stop-color="#55D6FF"/>
    </linearGradient>
  </defs>
</svg>
