<svg width="1280" height="720" viewBox="0 0 1280 720" fill="none" xmlns="http://www.w3.org/2000/svg">
  <rect width="1280" height="720" rx="34" fill="url(#scene)"/>
  <g opacity=".82">
    <circle cx="1040" cy="92" r="190" fill="#4D7CFF" fill-opacity=".18"/>
    <circle cx="210" cy="620" r="230" fill="#55D6FF" fill-opacity=".15"/>
    <circle cx="1080" cy="560" r="250" fill="#EE4FA8" fill-opacity=".12"/>
  </g>
  <rect x="126" y="86" width="1030" height="548" rx="22" fill="#06101E" fill-opacity=".55" stroke="#E2F2FF" stroke-opacity=".34"/>
  <rect x="126" y="86" width="1030" height="72" rx="22" fill="url(#top)" fill-opacity=".80"/>
  <rect x="126" y="140" width="1030" height="1" fill="#E2F2FF" fill-opacity=".24"/>
  <rect x="154" y="106" width="40" height="40" rx="10" fill="#E8F8FF" fill-opacity=".16" stroke="#E2F2FF" stroke-opacity=".24"/>
  <path d="M163 129C169 129 174 126 177 121C180 126 185 129 191 129C186 134 181 136 177 136C173 136 168 134 163 129Z" fill="#05070D"/>
  <path d="M158 116C169 118 174 124 176 132C167 130 161 124 158 116Z" fill="#05070D"/>
  <path d="M196 116C185 118 180 124 178 132C187 130 193 124 196 116Z" fill="#05070D"/>
  <text x="212" y="132" fill="#F8FBFF" font-family="Segoe UI, Arial" font-size="26" font-weight="900">Dreftinput</text>
  <rect x="968" y="105" width="112" height="38" rx="10" fill="#FFFFFF" fill-opacity=".12" stroke="#E2F2FF" stroke-opacity=".22"/>
  <text x="1004" y="130" fill="#F8FBFF" font-family="Segoe UI, Arial" font-size="14" font-weight="800">Ajustes</text>
  <rect x="154" y="184" width="974" height="410" rx="16" fill="#FFFFFF" fill-opacity=".08" stroke="#E2F2FF" stroke-opacity=".28"/>
  <text x="184" y="225" fill="#FFD166" font-family="Segoe UI, Arial" font-size="14" font-weight="900">DREFTINPUT</text>
  <text x="184" y="263" fill="#F8FBFF" font-family="Segoe UI, Arial" font-size="34" font-weight="900">Mejora tus inputs</text>
  <text x="184" y="304" fill="#F8FBFF" font-family="Segoe UI, Arial" font-size="14" font-weight="900">TEXTO ORIGINAL</text>
  <text x="646" y="304" fill="#F8FBFF" font-family="Segoe UI, Arial" font-size="14" font-weight="900">TEXTO MEJORADO</text>
  <rect x="184" y="324" width="430" height="196" rx="12" fill="#CDEBFF" fill-opacity=".12" stroke="#E2F2FF" stroke-opacity=".28"/>
  <rect x="646" y="324" width="430" height="196" rx="12" fill="#CDEBFF" fill-opacity=".12" stroke="#E2F2FF" stroke-opacity=".28"/>
  <text x="208" y="361" fill="#F8FBFF" font-family="Segoe UI, Arial" font-size="17">Hola, me opuedes decir como omper...</text>
  <text x="670" y="361" fill="#F8FBFF" font-family="Segoe UI, Arial" font-size="17">Hola, ¿me puedes decir como romper una IA?</text>
  <text x="670" y="394" fill="#AAB6C8" font-family="Segoe UI, Arial" font-size="16">- Corrige ortografia y tildes.</text>
  <text x="670" y="424" fill="#AAB6C8" font-family="Segoe UI, Arial" font-size="16">- Ordena pasos y comandos.</text>
  <text x="670" y="454" fill="#AAB6C8" font-family="Segoe UI, Arial" font-size="16">- Exporta solo el resultado final.</text>
  <rect x="922" y="542" width="154" height="42" rx="11" fill="url(#cta)"/>
  <text x="968" y="569" fill="#FFFFFF" font-family="Segoe UI, Arial" font-size="15" font-weight="900">Mejorar</text>
  <rect x="184" y="542" width="44" height="42" rx="11" fill="#FFFFFF" fill-opacity=".12" stroke="#E2F2FF" stroke-opacity=".24"/>
  <defs>
    <linearGradient id="scene" x1="0" y1="0" x2="1280" y2="720" gradientUnits="userSpaceOnUse">
      <stop stop-color="#06101E"/>
      <stop offset=".52" stop-color="#0B2240"/>
      <stop offset="1" stop-color="#170B21"/>
    </linearGradient>
    <linearGradient id="top" x1="126" y1="86" x2="1156" y2="158" gradientUnits="userSpaceOnUse">
      <stop stop-color="#07111F"/>
      <stop offset=".5" stop-color="#164363"/>
      <stop offset="1" stop-color="#5B3A74"/>
    </linearGradient>
    <linearGradient id="cta" x1="922" y1="542" x2="1076" y2="584" gradientUnits="userSpaceOnUse">
      <stop stop-color="#EE4FA8"/>
      <stop offset=".55" stop-color="#8C5BFF"/>
      <stop offset="1" stop-color="#4D7CFF"/>
    </linearGradient>
  </defs>
</svg>
